<svg width="70" height="60" viewBox="0 0 70 60" fill="none" xmlns="http://www.w3.org/2000/svg">
<rect width="70" height="60" fill="white"/>
<path d="M46.0206 55C45.5527 55 45.1473 54.6755 45.0449 54.219L34.2735 6.21896C34.1333 5.5939 34.6087 5 35.2493 5H42.5525C43.0229 5 43.4298 5.32789 43.5297 5.78759L52.0006 44.7567C52.1361 45.38 51.6613 45.9692 51.0234 45.9692H49.1793C48.541 45.9692 48.0661 45.3792 48.2024 44.7556L56.7212 5.78644C56.8215 5.32729 57.2281 5 57.6981 5H64.7507C65.3913 5 65.8667 5.5939 65.7265 6.21896L54.9551 54.219C54.8527 54.6755 54.4473 55 53.9794 55H46.0206Z" fill="#1A1E22"/>
<path d="M20 5C23.2195 5 25.8699 5.83933 27.9512 7.51799C30 9.2446 31.5285 11.7866 32.5366 15.1439C33.5122 18.5492 34 22.7698 34 27.8058V54C34 54.5523 33.5523 55 33 55H26.122C25.5697 55 25.122 54.5523 25.122 54L25.122 26.5827C25.122 23.801 24.6992 21.6187 23.8537 20.036C23.0081 18.5012 21.7236 17.7338 20 17.7338C18.2764 17.7338 16.9919 18.5012 16.1463 20.036C15.3008 21.6187 14.878 23.801 14.878 26.5827L14.878 54C14.878 54.5523 14.4303 55 13.878 55H7C6.44772 55 6 54.5523 6 54L6 27.8058C6 22.7698 6.50407 18.5492 7.5122 15.1439C8.48781 11.7866 10 9.2446 12.0488 7.51799C14.0976 5.83933 16.748 5 20 5Z" fill="#1A1E22"/>
<mask id="path-3-inside-1_1019_27" fill="white">
<path d="M0 23H70V38H0V23Z"/>
</mask>
<path d="M0 23H70V38H0V23Z" fill="white"/>
<path d="M70 37H0V39H70V37Z" fill="#1A1E22" mask="url(#path-3-inside-1_1019_27)"/>
<path d="M11.3936 34H10.2217L8.33203 29.3809V34H7.32129V27.6279H8.59082L10.3828 32.0176V27.6279H11.3936V34ZM18.8525 34H14.7803V27.6279H18.8525V28.541H15.791V30.2988H18.1787V31.2119H15.791V33.0918H18.8525V34ZM26.3115 34H25.3008V29.6885L24.6611 31.9785H23.8799L23.25 29.6885V34H22.2393V27.6279H23.4404L24.2705 30.5088L25.1006 27.6279H26.3115V34ZM33.7705 34H29.6982V27.6279H33.7705V28.541H30.709V30.2988H33.0967V31.2119H30.709V33.0918H33.7705V34Z" fill="#1A1E22"/>
<path d="M46.1504 27.6279L44.1631 34H43.0107L41.0234 27.6279H42.083L43.5918 32.6719L45.0908 27.6279H46.1504ZM53.082 34H49.0098V27.6279H53.082V28.541H50.0205V30.2988H52.4082V31.2119H50.0205V33.0918H53.082V34ZM60.541 34H56.4688V27.6279H60.541V28.541H57.4795V30.2988H59.8672V31.2119H57.4795V33.0918H60.541V34Z" fill="#1A1E22"/>
</svg>
